<svg width="28" height="28" viewBox="0 0 28 28" fill="none" xmlns="http://www.w3.org/2000/svg">
<path opacity="0.1" d="M13.9604 0.450684C6.51347 0.450684 0.476563 6.4876 0.476562 13.9345C0.476562 21.3814 6.51347 27.4183 13.9604 27.4183C21.4073 27.4183 27.4442 21.3814 27.4442 13.9345C27.4355 6.49119 21.4037 0.459352 13.9604 0.450684Z" fill="white"/>
<path d="M21.7436 9.66479L14.0522 20.1024C13.8688 20.3458 13.5953 20.5052 13.2931 20.5449C12.991 20.5847 12.6855 20.5013 12.4454 20.3136L6.95299 15.9224C6.46832 15.5345 6.38984 14.8272 6.7777 14.3426C7.16556 13.8579 7.87288 13.7794 8.35755 14.1673L12.9376 17.8315L19.9345 8.33551C20.164 7.99121 20.5641 7.80086 20.976 7.84002C21.3878 7.87919 21.7449 8.14153 21.9053 8.5229C22.0658 8.90427 22.0036 9.34296 21.7436 9.66479Z" fill="white"/>
</svg>
