<svg width="28" height="28" viewBox="0 0 28 28" fill="none" xmlns="http://www.w3.org/2000/svg">
<path d="M14.1557 0.302246C6.70879 0.302246 0.671875 6.33916 0.671875 13.7861C0.671875 21.233 6.70879 27.2699 14.1557 27.2699C21.6026 27.2699 27.6395 21.233 27.6395 13.7861C27.6308 6.34275 21.599 0.310915 14.1557 0.302246Z" fill="#100e21"/>
<path d="M21.9389 9.51635L14.2475 19.954C14.0641 20.1973 13.7906 20.3568 13.4884 20.3965C13.1863 20.4362 12.8808 20.3529 12.6407 20.1652L7.1483 15.774C6.66363 15.3861 6.58515 14.6788 6.97301 14.1941C7.36087 13.7094 8.0682 13.631 8.55287 14.0188L13.1329 17.6831L20.1299 8.18707C20.3593 7.84277 20.7594 7.65242 21.1713 7.69158C21.5832 7.73075 21.9402 7.9931 22.1006 8.37447C22.2611 8.75584 22.1989 9.19452 21.9389 9.51635Z" fill="#0CCF9F"/>
</svg>
