<svg width="43" height="43" viewBox="0 0 43 43" fill="none" xmlns="http://www.w3.org/2000/svg">
<g clip-path="url(#clip0_6913_8723)">
<path d="M33.9393 3.62109H14.6719V11.6111H38.0543V7.73451C38.0543 5.46616 36.2083 3.62109 33.9393 3.62109Z" fill="#CED9F9"/>
<path d="M23.0352 12.8403H0.5V5.42636C0.5 2.70972 2.71068 0.5 5.42828 0.5H12.6336C13.3497 0.5 14.0396 0.650925 14.6664 0.934509C15.5418 1.32896 16.2939 1.97913 16.8213 2.8286L23.0352 12.8403Z" fill="#1640C1"/>
<path d="M42.5 14.5004V38.3817C42.5 40.653 40.6511 42.5003 38.3789 42.5003H4.62111C2.34891 42.5003 0.5 40.653 0.5 38.3817V10.3809H38.3789C40.6511 10.3809 42.5 12.2288 42.5 14.5004Z" fill="#2354E6"/>
<path d="M42.5 14.5004V38.3817C42.5 40.653 40.6511 42.5003 38.3789 42.5003H21.5V10.3809H38.3789C40.6511 10.3809 42.5 12.2288 42.5 14.5004Z" fill="#1849D6"/>
<path d="M32.549 26.4395C32.549 32.532 27.5928 37.4884 21.5011 37.4884C15.4093 37.4884 10.4531 32.532 10.4531 26.4395C10.4531 20.3481 15.4093 15.3916 21.5011 15.3916C27.5928 15.3916 32.549 20.3481 32.549 26.4395Z" fill="#E7ECFC"/>
<path d="M32.5479 26.4395C32.5479 32.532 27.5918 37.4884 21.5 37.4884V15.3916C27.5918 15.3916 32.5479 20.3481 32.5479 26.4395Z" fill="#CED9F9"/>
<path d="M25.0593 26.5758C24.8289 26.7709 24.5466 26.8661 24.2668 26.8661C23.9166 26.8661 23.5686 26.7177 23.3251 26.4287L22.7287 25.7218V30.3499C22.7287 31.0292 22.1776 31.5803 21.4983 31.5803C20.8189 31.5803 20.2678 31.0292 20.2678 30.3499V25.7218L19.6715 26.4287C19.2325 26.9481 18.4567 27.0145 17.9373 26.5758C17.4182 26.1378 17.3515 25.3617 17.7896 24.8422L20.2252 21.9548C20.5427 21.5793 21.0061 21.3633 21.4983 21.3633C21.9905 21.3633 22.4538 21.5793 22.7714 21.9548L25.207 24.8422C25.645 25.3617 25.5784 26.1378 25.0593 26.5758Z" fill="#6C8DEF"/>
<path d="M25.061 26.5758C24.8306 26.7709 24.5483 26.8661 24.2686 26.8661C23.9183 26.8661 23.5703 26.7177 23.3268 26.4287L22.7305 25.7218V30.3499C22.7305 31.0292 22.1793 31.5803 21.5 31.5803V21.3633C21.9922 21.3633 22.4555 21.5793 22.7731 21.9548L25.2087 24.8422C25.6467 25.3617 25.5801 26.1378 25.061 26.5758Z" fill="#3B67E9"/>
</g>
<defs>
<clipPath id="clip0_6913_8723">
<rect width="42" height="42" fill="white" transform="translate(0.5 0.5)"/>
</clipPath>
</defs>
</svg>
