<svg width="29" height="30" viewBox="0 0 29 30" fill="none" xmlns="http://www.w3.org/2000/svg">
<g clip-path="url(#clip0_5077_12215)">
<path d="M23.27 5.41626C22.5309 5.41626 21.9297 6.01886 21.9297 6.75961V23.2492C21.9973 25.0318 24.5482 25.0254 24.6154 23.2492V6.75961C24.6154 6.01892 24.0119 5.41626 23.27 5.41626Z" fill="white"/>
<path d="M14.5016 5.41626C13.7598 5.41626 13.1562 6.01886 13.1562 6.75961V23.2492C13.224 25.0293 15.7799 25.0279 15.8471 23.2492V6.75961C15.8471 6.01892 15.2435 5.41626 14.5016 5.41626Z" fill="white"/>
<path d="M18.887 10.3281C18.1481 10.3281 17.5469 10.9307 17.5469 11.6715V18.3373C17.6145 20.1201 20.1653 20.1135 20.2325 18.3373V11.6715C20.2325 10.9307 19.6289 10.3281 18.887 10.3281Z" fill="white"/>
<path d="M27.6527 12.7842C26.9137 12.7842 26.3125 13.3868 26.3125 14.1275V15.8815C26.3801 17.6642 28.9309 17.6577 28.9981 15.8815V14.1275C28.9981 13.3868 28.3946 12.7842 27.6527 12.7842Z" fill="white"/>
<path d="M1.34544 12.7842C0.603562 12.7842 0 13.3868 0 14.1275V15.8814C0.0678555 17.6589 2.61867 17.6628 2.68562 15.8814V14.1275C2.68562 13.3868 2.08443 12.7842 1.34544 12.7842Z" fill="white"/>
<path d="M5.72825 7.87207C4.98637 7.87207 4.38281 8.47467 4.38281 9.21542V20.7931C4.45067 22.5707 7.00154 22.5744 7.06854 20.7931V9.21542C7.06854 8.47467 6.4673 7.87207 5.72825 7.87207Z" fill="white"/>
<path d="M10.1188 0.504395C9.37694 0.504395 8.77344 1.10699 8.77344 1.84774V28.161C8.84124 29.9386 11.392 29.9424 11.4591 28.161V1.84774C11.4591 1.10699 10.8578 0.504395 10.1188 0.504395Z" fill="white"/>
</g>
<defs>
<clipPath id="clip0_5077_12215">
<rect width="29" height="29" fill="white" transform="translate(0 0.5)"/>
</clipPath>
</defs>
</svg>
